<svg width="80" height="80" viewBox="0 0 80 80" fill="none" xmlns="http://www.w3.org/2000/svg">
<g clip-path="url(#clip0_0_42)">
<path d="M40 0L43.9018 20.3843L55.3073 3.04482L51.1114 23.3706L68.2843 11.7157L56.6294 28.8886L76.9552 24.6927L59.6157 36.0982L80 40L59.6157 43.9018L76.9552 55.3073L56.6294 51.1114L68.2843 68.2843L51.1114 56.6294L55.3073 76.9552L43.9018 59.6157L40 80L36.0982 59.6157L24.6927 76.9552L28.8886 56.6294L11.7157 68.2843L23.3706 51.1114L3.04482 55.3073L20.3843 43.9018L0 40L20.3843 36.0982L3.04482 24.6927L23.3706 28.8886L11.7157 11.7157L28.8886 23.3706L24.6927 3.04482L36.0982 20.3843L40 0Z" fill="#CFD2DD"/>
</g>
<defs>
<clipPath id="clip0_0_42">
<rect width="80" height="80" fill="white"/>
</clipPath>
</defs>
</svg>
