<svg width="41" height="41" viewBox="0 0 41 41" fill="none" xmlns="http://www.w3.org/2000/svg">
<g opacity="0.2">
<g clip-path="url(#clip0_0_45)">
<path fill-rule="evenodd" clip-rule="evenodd" d="M20.5559 38.0314C30.3285 38.0314 38.2506 30.1093 38.2506 20.3368C38.2506 10.5643 30.3285 2.6421 20.5559 2.6421C10.7835 2.6421 2.86128 10.5643 2.86128 20.3368C2.86128 30.1093 10.7835 38.0314 20.5559 38.0314ZM20.5559 40.0827C31.4614 40.0827 40.3019 31.2422 40.3019 20.3368C40.3019 9.43139 31.4614 0.59082 20.5559 0.59082C9.65057 0.59082 0.810001 9.43139 0.810001 20.3368C0.810001 31.2422 9.65057 40.0827 20.5559 40.0827Z" fill="#1F2128"/>
<path fill-rule="evenodd" clip-rule="evenodd" d="M20.5559 38.0314C30.3285 38.0314 38.2506 30.1093 38.2506 20.3368C38.2506 10.5643 30.3285 2.6421 20.5559 2.6421C10.7835 2.6421 2.86128 10.5643 2.86128 20.3368C2.86128 30.1093 10.7835 38.0314 20.5559 38.0314ZM20.5559 40.0827C31.4614 40.0827 40.3019 31.2422 40.3019 20.3368C40.3019 9.43139 31.4614 0.59082 20.5559 0.59082C9.65057 0.59082 0.810001 9.43139 0.810001 20.3368C0.810001 31.2422 9.65057 40.0827 20.5559 40.0827Z" fill="white" fill-opacity="0.45"/>
</g>
</g>
<defs>
<clipPath id="clip0_0_45">
<rect width="40" height="40" fill="white" transform="translate(0.810001 0.410156)"/>
</clipPath>
</defs>
</svg>
