<svg width="148" height="47" viewBox="0 0 148 47" fill="none" xmlns="http://www.w3.org/2000/svg">
<path d="M3.90528 35.1436V12.1036H8.80128L22.2733 28.1676V12.1036H26.9453V35.1436H22.0493L8.51328 19.0156V35.1436H3.90528ZM30.5943 35.1436V12.1036H51.8423V16.7436H35.2663V21.2876H48.6103V25.9596H35.2663V35.1436H30.5943ZM62.0318 35.1436V16.7436H52.8158V12.1036H75.8558V16.7436H66.6718V35.1436H62.0318ZM78.281 35.1436V12.1036H82.889V21.2876H97.193V12.1036H101.801V35.1436H97.193V25.9596H82.889V35.1436H78.281ZM109.884 35.1436C109.073 35.1436 108.316 34.9409 107.612 34.5356C106.929 34.1089 106.385 33.5542 105.98 32.8716C105.574 32.1889 105.372 31.4422 105.372 30.6316V16.5836H109.916V30.4076C109.916 30.4502 109.937 30.4929 109.98 30.5356C110.022 30.5782 110.065 30.5996 110.108 30.5996H119.452C119.494 30.5996 119.537 30.5782 119.58 30.5356C119.622 30.4929 119.644 30.4502 119.644 30.4076V16.5836H124.188V30.6316C124.188 31.4422 123.985 32.1889 123.58 32.8716C123.174 33.5542 122.63 34.1089 121.948 34.5356C121.265 34.9409 120.508 35.1436 119.676 35.1436H109.884ZM126.873 35.1436V10.5036H131.417V16.5836H141.177C142.009 16.5836 142.766 16.7969 143.449 17.2236C144.131 17.6289 144.675 18.1729 145.081 18.8556C145.486 19.5382 145.689 20.2849 145.689 21.0956V30.6316C145.689 31.4422 145.486 32.1889 145.081 32.8716C144.675 33.5542 144.131 34.1089 143.449 34.5356C142.766 34.9409 142.009 35.1436 141.177 35.1436H126.873ZM131.609 30.5996H140.953C141.017 30.5996 141.059 30.5782 141.081 30.5356C141.123 30.4929 141.145 30.4502 141.145 30.4076V21.3196C141.145 21.2769 141.123 21.2342 141.081 21.1916C141.059 21.1489 141.017 21.1276 140.953 21.1276H131.609C131.566 21.1276 131.523 21.1489 131.481 21.1916C131.438 21.2342 131.417 21.2769 131.417 21.3196V30.4076C131.417 30.4502 131.438 30.4929 131.481 30.5356C131.523 30.5782 131.566 30.5996 131.609 30.5996Z" fill="white"/>
</svg>
